<?xml version="1.0" encoding="UTF-8" standalone="no"?>
<svg
   xmlns:dc="http://purl.org/dc/elements/1.1/"
   xmlns:cc="http://creativecommons.org/ns#"
   xmlns:rdf="http://www.w3.org/1999/02/22-rdf-syntax-ns#"
   xmlns:svg="http://www.w3.org/2000/svg"
   xmlns="http://www.w3.org/2000/svg"
   xmlns:sodipodi="http://sodipodi.sourceforge.net/DTD/sodipodi-0.dtd"
   xmlns:inkscape="http://www.inkscape.org/namespaces/inkscape"
   width="1500"
   height="250"
   viewBox="0 0 1508.125 251.35417"
   version="1.1"
   id="svg8"
   inkscape:version="1.0.2-2 (e86c870879, 2021-01-15)"
   sodipodi:docname="cineCUC.svg">
  <title
     id="title129">cineCUC</title>
  <defs
     id="defs2">
    <rect
       x="198.4375"
       y="105.83334"
       width="77.787498"
       height="53.445843"
       id="rect60" />
    <rect
       x="336.54999"
       y="42.862499"
       width="637.11664"
       height="185.7375"
       id="rect40" />
    <rect
       x="324.90833"
       y="43.920834"
       width="655.63751"
       height="181.50417"
       id="rect34" />
    <rect
       x="333.375"
       y="38.629166"
       width="642.40833"
       height="171.97917"
       id="rect28" />
    <rect
       x="321.73334"
       y="31.220833"
       width="662.51666"
       height="198.4375"
       id="rect18" />
    <rect
       x="161.7738"
       y="68.035713"
       width="648.60712"
       height="128.5119"
       id="rect12" />
  </defs>
  <sodipodi:namedview
     id="base"
     pagecolor="#ffffff"
     bordercolor="#666666"
     borderopacity="1.0"
     inkscape:pageopacity="0.23921569"
     inkscape:pageshadow="2"
     inkscape:zoom="0.35355339"
     inkscape:cx="2013.6418"
     inkscape:cy="588.33421"
     inkscape:document-units="mm"
     inkscape:current-layer="layer1"
     inkscape:document-rotation="0"
     showgrid="false"
     width="200mm"
     showborder="true"
     inkscape:pagecheckerboard="true"
     inkscape:window-width="1920"
     inkscape:window-height="1001"
     inkscape:window-x="-9"
     inkscape:window-y="-9"
     inkscape:window-maximized="1"
     scale-x="3.8"
     units="px" />
  <metadata
     id="metadata5">
    <rdf:RDF>
      <cc:Work
         rdf:about="">
        <dc:format>image/svg+xml</dc:format>
        <dc:type
           rdf:resource="http://purl.org/dc/dcmitype/StillImage" />
        <dc:title>cineCUC</dc:title>
      </cc:Work>
    </rdf:RDF>
  </metadata>
  <g
     inkscape:label="Capa 1"
     inkscape:groupmode="layer"
     id="layer1">
    <text
       xml:space="preserve"
       id="text10"
       style="font-style:normal;font-variant:normal;font-weight:normal;font-stretch:normal;font-size:52.9167px;line-height:1.35;font-family:'Juice ITC';-inkscape-font-specification:'Juice ITC';white-space:pre;shape-inside:url(#rect12);fill:#000000;fill-opacity:1;stroke:none;" />
    <text
       xml:space="preserve"
       id="text16"
       style="font-style:normal;font-weight:normal;font-size:10.5833px;line-height:1.25;font-family:sans-serif;white-space:pre;shape-inside:url(#rect18);fill:#000000;fill-opacity:1;stroke:none;" />
    <text
       xml:space="preserve"
       style="font-style:normal;font-weight:normal;font-size:10.5833px;line-height:1.25;font-family:sans-serif;fill:#000000;fill-opacity:1;stroke:none;stroke-width:0.264583"
       x="348.19165"
       y="67.73333"
       id="text24"><tspan
         sodipodi:role="line"
         id="tspan22"
         x="348.19165"
         y="67.73333"
         style="stroke-width:0.264583" /></text>
    <text
       xml:space="preserve"
       id="text26"
       style="font-style:normal;font-weight:normal;font-size:10.5833px;line-height:1.25;font-family:sans-serif;white-space:pre;shape-inside:url(#rect28);fill:#000000;fill-opacity:1;stroke:none;" />
    <text
       xml:space="preserve"
       id="text32"
       style="font-style:normal;font-weight:normal;font-size:127px;line-height:1.25;font-family:sans-serif;white-space:pre;shape-inside:url(#rect34);fill:#000000;fill-opacity:1;stroke:none;" />
    <text
       xml:space="preserve"
       id="text38"
       style="font-style:normal;font-weight:normal;font-size:127px;line-height:1.25;font-family:sans-serif;white-space:pre;shape-inside:url(#rect40);fill:#000000;fill-opacity:1;stroke:none;"
       transform="translate(-296.47732,8.6170938)"><tspan
         x="336.55078"
         y="160.4375"><tspan
           style="font-style:normal;font-variant:normal;font-weight:normal;font-stretch:normal;font-size:127px;font-family:PMingLiU-ExtB;-inkscape-font-specification:PMingLiU-ExtB">Cine CUC</tspan></tspan></text>
    <text
       xml:space="preserve"
       id="text58"
       style="font-style:normal;font-weight:normal;font-size:10.5833px;line-height:1.25;font-family:sans-serif;white-space:pre;shape-inside:url(#rect60);fill:#000000;fill-opacity:1;stroke:none;" />
    <g
       id="g113">
      <g
         transform="matrix(0.04253541,0,0,-0.0160054,-1.1572907,264.92436)"
         fill="#000000"
         stroke="none"
         id="g84">
        <path
           d="m 8095,4899 c -365,-19 -874,-70 -1244,-124 -447,-65 -790,-129 -1576,-295 -1188,-251 -1621,-310 -2260,-310 -633,0 -1259,96 -1965,300 -76,22 -143,40 -149,40 -11,0 -25,-28 -37,-74 -5,-21 0,-24 76,-46 89,-25 87,-23 60,-95 -11,-28 -11,-28 -118,5 -31,10 -58,17 -59,16 -1,-1 -13,-32 -26,-69 l -24,-67 36,-10 c 20,-6 104,-29 186,-51 185,-50 177,-47 172,-56 -5,-8 -87,-320 -391,-1485 -67,-257 -125,-470 -127,-473 -5,-4 -312,73 -454,115 -38,11 -75,20 -82,20 -17,0 -46,-90 -30,-95 7,-2 46,-13 87,-24 81,-20 80,-19 59,-87 l -10,-32 -87,24 c -47,13 -89,20 -93,16 -3,-4 -13,-29 -22,-55 -12,-36 -13,-49 -4,-52 7,-2 59,-17 117,-34 766,-216 1389,-328 2180,-391 217,-18 928,-24 1186,-11 831,43 1335,120 2929,446 1180,241 1731,307 2445,292 866,-18 1718,-172 2791,-503 97,-30 180,-54 186,-54 6,0 20,28 32,63 45,124 94,252 101,260 4,4 46,-2 94,-14 48,-12 89,-19 91,-17 3,3 82,324 176,714 93,390 190,790 214,889 24,99 53,222 65,273 21,88 24,94 45,90 20,-4 26,2 44,49 26,67 26,73 3,73 -29,0 -31,8 -15,57 14,41 18,45 43,39 25,-5 30,-1 43,32 8,20 12,40 9,44 -10,9 -257,86 -507,157 -1028,293 -1996,457 -3017,511 -226,12 -938,11 -1173,-1 z m 645,-155 v -55 l -106,3 -107,3 -4,39 c -7,65 -5,66 112,66 h 105 z m -324,-1 -1,-48 -107,-3 -108,-3 v 51 50 h 109 108 z m 654,-3 v -50 h -110 -110 v 50 50 h 110 110 z m -980,-9 v -48 l -102,-6 c -57,-3 -106,-3 -110,-1 -5,3 -8,25 -8,49 0,51 0,51 138,54 l 82,1 z m 1306,37 c 2,-3 1,-26 -2,-52 l -7,-47 -96,6 c -53,4 -101,8 -106,10 -6,1 -9,23 -7,50 l 4,48 105,-6 c 57,-3 106,-7 109,-9 z m -1636,-27 c 0,-10 3,-32 6,-49 l 6,-30 -106,-7 c -59,-4 -108,-6 -110,-4 -2,2 -7,25 -10,51 l -7,47 58,4 c 151,9 163,8 163,-12 z m 1883,13 77,-7 v -48 c 0,-26 -3,-49 -7,-51 -5,-2 -54,0 -110,5 l -103,9 v 33 c 0,70 2,70 143,59 z m -2203,-80 v -41 l -77,-7 c -42,-4 -89,-10 -104,-13 -26,-5 -28,-3 -34,41 -4,26 -5,50 -2,53 13,12 202,29 209,18 4,-5 8,-29 8,-51 z m 2588,39 c 21,-5 22,-9 16,-52 -4,-25 -7,-47 -8,-48 -1,-1 -50,3 -109,10 -102,10 -108,12 -103,31 3,12 6,34 6,50 v 29 l 88,-7 c 48,-4 97,-10 110,-13 z m -2913,-59 c 3,-26 3,-50 -2,-54 -10,-9 -194,-33 -201,-26 -5,5 -22,90 -18,93 1,1 47,9 101,16 55,8 103,15 106,16 4,1 10,-20 14,-45 z m 3150,31 c 110,-13 108,-12 102,-62 -2,-24 -7,-46 -9,-49 -5,-4 -132,11 -185,22 -24,5 -30,33 -17,82 5,18 12,22 33,18 14,-3 49,-7 76,-11 z m -3475,-54 c 0,-10 3,-32 6,-48 l 6,-30 -103,-17 c -56,-9 -106,-13 -110,-9 -4,4 -10,27 -14,50 l -7,42 49,6 c 26,4 64,11 83,15 64,14 90,12 90,-9 z m 3819,4 c 46,-8 85,-16 87,-17 3,-4 -12,-88 -17,-92 -2,-2 -50,3 -106,12 -111,17 -110,15 -97,81 8,37 13,37 133,16 z m -4145,-52 c 19,-68 18,-82 -6,-87 -66,-15 -189,-32 -192,-27 -6,9 -18,91 -14,92 1,0 46,8 98,18 52,11 98,19 102,20 4,1 9,-7 12,-16 z m 4457,0 c 93,-15 100,-18 95,-37 -3,-12 -6,-28 -6,-36 -1,-41 -13,-43 -120,-25 l -102,18 6,36 c 3,20 6,42 6,49 0,15 1,15 121,-5 z m -1508,-24 c 206,-12 217,-13 217,-32 0,-11 -48,-388 -106,-836 -58,-449 -114,-888 -126,-976 -11,-88 -21,-161 -22,-162 -2,-2 -68,1 -147,7 -214,14 -793,12 -1024,-5 -110,-8 -210,-15 -221,-15 -26,0 -21,-74 -64,1040 -16,421 -32,811 -35,866 l -5,102 107,7 c 371,26 1008,28 1426,4 z m -3269,-36 c 9,-33 18,-83 14,-83 -2,0 -48,-9 -103,-19 -72,-14 -101,-17 -107,-9 -9,17 -20,79 -14,85 5,5 166,40 193,42 6,1 14,-7 17,-16 z m 5096,1 c 47,-9 88,-20 92,-23 4,-3 2,-27 -3,-52 l -10,-46 -105,21 -106,20 6,40 c 11,65 4,63 126,40 z m -3980,-43 c 0,-5 32,-290 70,-633 140,-1242 153,-1358 148,-1363 -3,-3 -88,-19 -189,-35 -259,-41 -618,-108 -1014,-189 -187,-38 -340,-69 -340,-68 -1,1 -27,108 -58,237 -31,129 -138,566 -237,970 -100,404 -182,744 -183,754 -2,17 24,25 253,72 453,94 963,183 1390,243 169,23 160,23 160,12 z m -1428,-65 3,-39 -85,-18 c -118,-25 -117,-25 -129,19 -6,20 -11,42 -11,48 0,15 203,53 212,39 4,-6 8,-28 10,-49 z m 4663,29 c 219,-32 568,-95 804,-146 203,-43 752,-177 770,-189 8,-4 -90,-308 -305,-951 -174,-519 -320,-954 -325,-966 l -8,-22 -73,20 c -369,102 -733,184 -1112,249 -121,20 -215,39 -209,41 6,2 49,387 107,969 53,531 99,980 102,998 5,31 7,32 42,27 20,-3 114,-17 207,-30 z m 1075,9 c 47,-10 86,-18 88,-20 2,-1 -2,-22 -9,-48 -8,-31 -17,-46 -28,-46 -14,0 -51,8 -170,35 -21,6 -23,10 -17,47 8,52 14,60 34,54 10,-3 55,-13 102,-22 z m -6057,-92 c 5,-24 7,-45 5,-47 -2,-2 -39,-11 -83,-20 -44,-9 -90,-18 -101,-21 -18,-5 -23,1 -33,41 -7,26 -10,49 -8,51 8,8 172,43 192,41 15,-2 22,-13 28,-45 z m 6376,19 c 46,-11 85,-21 86,-23 1,-2 -4,-24 -11,-50 -9,-28 -19,-46 -27,-43 -6,2 -54,13 -104,25 -92,22 -93,23 -86,49 13,57 23,72 41,67 9,-3 55,-14 101,-25 z m -6697,-90 3,-45 -85,-17 c -119,-25 -116,-26 -129,27 -7,26 -11,47 -9,49 10,7 204,41 210,36 4,-3 8,-26 10,-50 z m -3955,17 c 51,-13 93,-27 93,-33 0,-33 -23,-85 -37,-85 -22,0 -176,41 -185,49 -11,9 13,91 26,91 6,0 52,-10 103,-22 z m 10951,1 c 48,-12 91,-25 95,-29 4,-4 2,-28 -5,-54 -9,-34 -16,-45 -27,-41 -8,3 -53,15 -100,27 -47,11 -88,22 -90,24 -7,6 22,94 31,94 5,0 48,-10 96,-21 z m -7318,-41 c 0,-7 3,-29 6,-49 l 6,-37 -88,-16 c -122,-22 -122,-22 -131,22 -4,20 -8,41 -8,46 0,6 38,17 85,27 107,21 130,22 130,7 z m -3226,-59 c 3,-2 -1,-26 -7,-52 -7,-30 -15,-46 -23,-43 -6,2 -51,12 -99,22 -48,9 -89,23 -92,30 -2,6 0,30 6,51 l 11,40 100,-22 c 55,-12 102,-24 104,-26 z m 10859,15 c 50,-14 95,-28 99,-30 8,-5 -20,-94 -30,-94 -7,0 -195,52 -200,55 -1,1 3,17 9,36 6,19 12,40 15,47 4,16 0,16 107,-14 z m -7953,-16 c 0,-7 3,-29 6,-49 l 6,-36 -78,-12 c -44,-7 -91,-15 -105,-18 -25,-5 -28,-2 -37,43 -6,27 -10,50 -8,51 4,4 162,31 189,32 15,1 27,-4 27,-11 z m -2665,-40 c 39,-6 73,-14 77,-17 4,-3 2,-27 -3,-52 l -10,-46 -101,18 c -55,10 -102,20 -105,22 -2,3 -1,26 3,52 6,46 7,47 38,41 17,-4 63,-12 101,-18 z m 2349,-45 c 3,-25 5,-48 3,-50 -8,-7 -202,-31 -208,-25 -6,7 -21,91 -17,93 10,3 177,27 194,28 18,1 22,-6 28,-46 z m -2054,2 c 114,-13 110,-10 103,-63 -3,-26 -7,-48 -8,-49 -3,-5 -205,23 -210,29 -3,2 -2,26 1,52 6,44 8,47 33,42 14,-3 51,-8 81,-11 z m 1730,-47 c 7,-55 9,-54 -122,-64 l -85,-7 -6,33 c -14,68 -15,66 86,77 126,14 121,15 127,-39 z m -1352,12 h 53 l -3,-52 -3,-52 -55,2 c -30,1 -79,5 -107,8 l -53,6 v 42 c 0,24 3,46 8,50 4,5 30,5 57,2 28,-3 74,-6 103,-6 z m 1026,-21 c 15,-76 13,-79 -58,-79 -35,0 -84,-3 -110,-6 l -46,-7 v 51 51 l 43,5 c 23,4 67,8 97,9 30,2 58,4 61,5 4,1 9,-12 13,-29 z m -700,5 46,-7 v -50 -50 l -107,7 c -60,4 -108,8 -109,9 0,1 1,23 4,50 l 4,47 h 58 c 31,0 78,-3 104,-6 z m 376,-43 c 0,-59 -4,-61 -132,-61 h -88 v 50 49 l 58,4 c 31,2 81,4 110,5 l 52,2 z m 1673,7 c 3,-13 26,-126 51,-253 117,-596 270,-1377 301,-1534 19,-96 33,-176 30,-179 -15,-15 -773,-137 -1070,-172 -256,-30 -708,-68 -636,-53 23,5 23,5 17,106 -7,102 -80,1500 -92,1759 l -7,137 34,5 c 19,3 66,8 104,11 244,21 728,94 1075,164 183,36 187,37 193,9 z M 1810,3936 c 319,-55 568,-81 923,-98 l 267,-12 V 2823 1820 h -82 c -400,0 -994,49 -1428,116 -271,42 -303,48 -308,63 -3,9 2,11 17,6 11,-3 21,-3 21,2 0,5 92,446 205,982 113,535 205,975 205,978 0,2 8,2 18,-1 9,-3 82,-17 162,-30 z m 8197,-1452 c -3,-3 -12,-4 -19,-1 -8,3 -5,6 6,6 11,1 17,-2 13,-5 z m -1399,-92 3,-52 h -110 -111 v 50 49 l 98,3 c 53,2 102,3 107,3 6,-1 11,-25 13,-53 z m 255,52 c 75,-7 77,-8 77,-33 -1,-70 -2,-71 -116,-71 h -104 v 55 55 h 33 c 19,0 68,-3 110,-6 z m 392,-19 c 6,-1 9,-23 7,-50 l -4,-48 -105,6 c -57,3 -107,7 -109,10 -3,3 -2,26 1,52 l 7,46 97,-6 c 53,-4 101,-8 106,-10 z m -973,-37 c 3,-24 2,-46 -1,-49 -3,-4 -52,-9 -108,-13 l -103,-6 v 27 c 0,16 -3,38 -6,50 -7,26 8,29 132,32 l 82,1 z m 1241,17 c 64,-6 67,-8 67,-33 0,-15 -3,-37 -6,-50 -7,-23 -9,-23 -83,-17 -132,11 -131,10 -131,59 0,53 5,58 50,52 19,-3 65,-8 103,-11 z m -1569,-11 c 3,-9 6,-30 6,-49 0,-32 0,-33 -57,-39 -32,-4 -79,-9 -104,-12 -42,-5 -47,-3 -53,18 -3,13 -6,35 -6,50 0,24 4,27 43,32 143,19 164,19 171,0 z m 1869,-24 c 43,-5 82,-10 87,-10 9,0 1,-81 -9,-92 -3,-4 -52,-2 -109,4 -111,12 -107,9 -96,80 6,32 10,37 28,33 11,-2 56,-9 99,-15 z m -2188,-50 7,-46 -103,-13 c -56,-7 -105,-9 -109,-4 -4,4 -10,27 -14,49 l -6,41 103,15 c 56,8 105,12 109,9 3,-3 9,-26 13,-51 z m 2543,-2 63,-10 -6,-42 c -4,-22 -10,-45 -14,-49 -4,-4 -54,0 -110,9 l -102,17 7,41 c 10,65 -5,62 162,34 z m -2866,-37 c 4,-25 6,-46 4,-48 -1,-2 -49,-11 -104,-21 l -102,-18 -10,35 c -18,66 -18,66 83,83 50,9 99,15 107,14 9,-1 17,-18 22,-45 z m 3161,-17 88,-17 -6,-41 c -4,-23 -11,-45 -15,-49 -4,-5 -45,-1 -91,8 -126,25 -121,22 -114,58 12,60 16,68 33,63 9,-3 57,-13 105,-22 z m -3489,-11 c 2,-10 7,-32 11,-49 l 6,-30 -102,-18 c -55,-10 -105,-14 -110,-9 -4,4 -11,26 -14,49 l -7,41 83,15 c 114,21 127,21 133,1 z m 3798,-54 c 51,-11 94,-21 96,-23 1,-2 -2,-25 -9,-51 -10,-40 -15,-46 -33,-41 -11,2 -58,12 -103,22 -46,10 -83,22 -83,28 0,25 22,86 31,86 5,0 51,-9 101,-21 z m -4113,-26 c 6,-21 11,-43 11,-49 0,-17 -202,-58 -211,-42 -9,14 -22,79 -17,84 5,4 167,41 190,43 12,1 20,-11 27,-36 z m 4444,-54 c 72,-18 87,-25 82,-38 -4,-9 -9,-28 -12,-44 -3,-15 -9,-29 -12,-32 -6,-3 -202,43 -208,49 -2,1 4,24 13,50 12,35 20,45 33,42 9,-3 56,-15 104,-27 z m -4769,13 c 3,-5 8,-27 12,-49 l 6,-40 -83,-17 c -46,-9 -93,-19 -104,-22 -17,-4 -22,2 -33,42 -7,26 -11,48 -9,50 4,5 168,42 189,43 9,1 19,-3 22,-7 z M 468,2048 c 50,-12 92,-27 92,-32 0,-22 -21,-86 -28,-86 -9,0 -196,43 -201,47 -8,6 22,93 33,93 6,0 53,-10 104,-22 z m 5565,-15 c 4,-21 6,-42 6,-48 -1,-8 -163,-52 -200,-55 -4,0 -10,16 -13,36 -4,19 -9,41 -12,49 -4,9 18,19 78,33 126,30 134,29 141,-15 z m 5440,-10 c 37,-8 40,-16 26,-63 -13,-43 -24,-47 -75,-31 -16,5 -55,17 -87,26 -58,16 -58,16 -52,48 15,67 17,68 92,46 38,-11 80,-22 96,-26 z m -5754,-68 c 6,-22 7,-42 3,-46 -5,-5 -155,-37 -196,-43 -5,0 -15,20 -21,47 -12,45 -12,47 9,52 147,34 182,41 188,36 3,-3 11,-24 17,-46 z m -4942,24 c 54,-12 99,-23 101,-24 2,-1 -2,-24 -9,-50 -13,-53 1,-51 -146,-19 -57,12 -73,20 -73,34 0,19 20,80 26,80 2,0 47,-10 101,-21 z m 10956,-34 c 97,-29 95,-26 67,-99 l -9,-24 -97,29 c -54,16 -99,29 -102,29 -2,0 -1,11 2,25 13,50 26,74 38,70 7,-2 53,-16 101,-30 z m -6335,-52 c 6,-26 10,-49 8,-50 -2,-3 -117,-27 -177,-37 l -37,-6 -7,46 c -3,25 -4,48 -1,51 4,5 162,39 193,42 6,0 16,-20 21,-46 z m -4294,21 c 50,-9 92,-18 94,-19 8,-6 -22,-95 -32,-95 -15,0 -190,32 -194,35 -2,2 0,24 3,49 8,53 3,52 129,30 z m 3974,-81 c 6,-26 9,-49 8,-50 -2,-2 -49,-12 -105,-22 -112,-20 -110,-22 -114,44 l -2,39 95,17 c 52,9 98,17 102,18 3,0 11,-20 16,-46 z m -3649,22 c 46,-8 85,-16 87,-17 3,-4 -12,-88 -18,-93 -4,-4 -199,25 -206,31 -2,1 0,23 3,48 8,54 7,53 134,31 z m 3335,-126 c -5,-9 -203,-34 -210,-26 -4,3 -9,26 -11,49 l -5,44 103,14 104,15 11,-45 c 6,-25 9,-48 8,-51 z m -3021,79 98,-12 -7,-46 c -4,-25 -8,-48 -10,-51 -1,-3 -51,1 -109,9 l -107,15 6,30 c 3,16 6,38 6,48 0,23 -1,22 123,7 z m 350,-44 c 64,-6 67,-7 67,-33 0,-14 -3,-37 -7,-50 -6,-22 -8,-23 -82,-16 -133,11 -138,13 -134,43 11,75 11,74 51,68 20,-3 67,-8 105,-12 z m 2342,-30 c 3,-25 5,-48 2,-50 -7,-7 -208,-31 -212,-25 -1,3 -5,26 -6,51 l -4,45 90,11 c 50,6 97,12 106,13 12,1 19,-11 24,-45 z m -2037,1 c 76,-6 92,-10 88,-22 -3,-8 -6,-31 -6,-50 v -35 l -107,7 c -60,4 -109,8 -111,10 -2,1 0,26 4,54 5,41 10,51 23,47 9,-3 58,-8 109,-11 z m 1714,-41 c 2,-25 1,-47 -2,-49 -4,-2 -51,-7 -107,-11 l -100,-7 -6,33 c -14,66 -12,69 51,73 31,2 80,4 108,5 l 52,2 z m -1384,19 82,-6 v -48 -49 h -49 c -26,0 -76,3 -110,6 l -61,7 v 48 c 0,56 -8,54 138,42 z m 1056,-15 c 3,-13 6,-35 6,-49 0,-24 -5,-27 -46,-33 -26,-3 -75,-6 -110,-6 h -64 v 50 49 l 68,4 c 37,2 83,4 103,5 30,2 38,-2 43,-20 z m -706,2 h 52 v -50 -50 h -104 c -58,0 -107,3 -109,8 -2,4 -2,29 1,56 l 4,49 52,-7 c 28,-3 75,-6 104,-6 z m 382,-45 v -55 h -110 -110 v 50 49 l 93,4 c 50,1 100,4 110,5 14,2 17,-6 17,-53 z"
           id="path80" />
        <path
           d="m 387,1574 c -4,-4 -7,-16 -7,-26 0,-14 6,-19 23,-16 14,2 22,10 22,23 0,20 -25,32 -38,19 z"
           id="path82" />
      </g>
    </g>
    <g
       id="g108">
      <g
         transform="matrix(0.04253541,0,0,-0.0160054,464.94573,265.16444)"
         fill="#000000"
         stroke="none"
         id="g99">
        <g
           id="g102">
          <path
             d="m 8095,4899 c -365,-19 -874,-70 -1244,-124 -447,-65 -790,-129 -1576,-295 -1188,-251 -1621,-310 -2260,-310 -633,0 -1259,96 -1965,300 -76,22 -143,40 -149,40 -11,0 -25,-28 -37,-74 -5,-21 0,-24 76,-46 89,-25 87,-23 60,-95 -11,-28 -11,-28 -118,5 -31,10 -58,17 -59,16 -1,-1 -13,-32 -26,-69 l -24,-67 36,-10 c 20,-6 104,-29 186,-51 185,-50 177,-47 172,-56 -5,-8 -87,-320 -391,-1485 -67,-257 -125,-470 -127,-473 -5,-4 -312,73 -454,115 -38,11 -75,20 -82,20 -17,0 -46,-90 -30,-95 7,-2 46,-13 87,-24 81,-20 80,-19 59,-87 l -10,-32 -87,24 c -47,13 -89,20 -93,16 -3,-4 -13,-29 -22,-55 -12,-36 -13,-49 -4,-52 7,-2 59,-17 117,-34 766,-216 1389,-328 2180,-391 217,-18 928,-24 1186,-11 831,43 1335,120 2929,446 1180,241 1731,307 2445,292 866,-18 1718,-172 2791,-503 97,-30 180,-54 186,-54 6,0 20,28 32,63 45,124 94,252 101,260 4,4 46,-2 94,-14 48,-12 89,-19 91,-17 3,3 82,324 176,714 93,390 190,790 214,889 24,99 53,222 65,273 21,88 24,94 45,90 20,-4 26,2 44,49 26,67 26,73 3,73 -29,0 -31,8 -15,57 14,41 18,45 43,39 25,-5 30,-1 43,32 8,20 12,40 9,44 -10,9 -257,86 -507,157 -1028,293 -1996,457 -3017,511 -226,12 -938,11 -1173,-1 z m 645,-155 v -55 l -106,3 -107,3 -4,39 c -7,65 -5,66 112,66 h 105 z m -324,-1 -1,-48 -107,-3 -108,-3 v 51 50 h 109 108 z m 654,-3 v -50 h -110 -110 v 50 50 h 110 110 z m -980,-9 v -48 l -102,-6 c -57,-3 -106,-3 -110,-1 -5,3 -8,25 -8,49 0,51 0,51 138,54 l 82,1 z m 1306,37 c 2,-3 1,-26 -2,-52 l -7,-47 -96,6 c -53,4 -101,8 -106,10 -6,1 -9,23 -7,50 l 4,48 105,-6 c 57,-3 106,-7 109,-9 z m -1636,-27 c 0,-10 3,-32 6,-49 l 6,-30 -106,-7 c -59,-4 -108,-6 -110,-4 -2,2 -7,25 -10,51 l -7,47 58,4 c 151,9 163,8 163,-12 z m 1883,13 77,-7 v -48 c 0,-26 -3,-49 -7,-51 -5,-2 -54,0 -110,5 l -103,9 v 33 c 0,70 2,70 143,59 z m -2203,-80 v -41 l -77,-7 c -42,-4 -89,-10 -104,-13 -26,-5 -28,-3 -34,41 -4,26 -5,50 -2,53 13,12 202,29 209,18 4,-5 8,-29 8,-51 z m 2588,39 c 21,-5 22,-9 16,-52 -4,-25 -7,-47 -8,-48 -1,-1 -50,3 -109,10 -102,10 -108,12 -103,31 3,12 6,34 6,50 v 29 l 88,-7 c 48,-4 97,-10 110,-13 z m -2913,-59 c 3,-26 3,-50 -2,-54 -10,-9 -194,-33 -201,-26 -5,5 -22,90 -18,93 1,1 47,9 101,16 55,8 103,15 106,16 4,1 10,-20 14,-45 z m 3150,31 c 110,-13 108,-12 102,-62 -2,-24 -7,-46 -9,-49 -5,-4 -132,11 -185,22 -24,5 -30,33 -17,82 5,18 12,22 33,18 14,-3 49,-7 76,-11 z m -3475,-54 c 0,-10 3,-32 6,-48 l 6,-30 -103,-17 c -56,-9 -106,-13 -110,-9 -4,4 -10,27 -14,50 l -7,42 49,6 c 26,4 64,11 83,15 64,14 90,12 90,-9 z m 3819,4 c 46,-8 85,-16 87,-17 3,-4 -12,-88 -17,-92 -2,-2 -50,3 -106,12 -111,17 -110,15 -97,81 8,37 13,37 133,16 z m -4145,-52 c 19,-68 18,-82 -6,-87 -66,-15 -189,-32 -192,-27 -6,9 -18,91 -14,92 1,0 46,8 98,18 52,11 98,19 102,20 4,1 9,-7 12,-16 z m 4457,0 c 93,-15 100,-18 95,-37 -3,-12 -6,-28 -6,-36 -1,-41 -13,-43 -120,-25 l -102,18 6,36 c 3,20 6,42 6,49 0,15 1,15 121,-5 z m -1508,-24 c 206,-12 217,-13 217,-32 0,-11 -48,-388 -106,-836 -58,-449 -114,-888 -126,-976 -11,-88 -21,-161 -22,-162 -2,-2 -68,1 -147,7 -214,14 -793,12 -1024,-5 -110,-8 -210,-15 -221,-15 -26,0 -21,-74 -64,1040 -16,421 -32,811 -35,866 l -5,102 107,7 c 371,26 1008,28 1426,4 z m -3269,-36 c 9,-33 18,-83 14,-83 -2,0 -48,-9 -103,-19 -72,-14 -101,-17 -107,-9 -9,17 -20,79 -14,85 5,5 166,40 193,42 6,1 14,-7 17,-16 z m 5096,1 c 47,-9 88,-20 92,-23 4,-3 2,-27 -3,-52 l -10,-46 -105,21 -106,20 6,40 c 11,65 4,63 126,40 z m -3980,-43 c 0,-5 32,-290 70,-633 140,-1242 153,-1358 148,-1363 -3,-3 -88,-19 -189,-35 -259,-41 -618,-108 -1014,-189 -187,-38 -340,-69 -340,-68 -1,1 -27,108 -58,237 -31,129 -138,566 -237,970 -100,404 -182,744 -183,754 -2,17 24,25 253,72 453,94 963,183 1390,243 169,23 160,23 160,12 z m -1428,-65 3,-39 -85,-18 c -118,-25 -117,-25 -129,19 -6,20 -11,42 -11,48 0,15 203,53 212,39 4,-6 8,-28 10,-49 z m 4663,29 c 219,-32 568,-95 804,-146 203,-43 752,-177 770,-189 8,-4 -90,-308 -305,-951 -174,-519 -320,-954 -325,-966 l -8,-22 -73,20 c -369,102 -733,184 -1112,249 -121,20 -215,39 -209,41 6,2 49,387 107,969 53,531 99,980 102,998 5,31 7,32 42,27 20,-3 114,-17 207,-30 z m 1075,9 c 47,-10 86,-18 88,-20 2,-1 -2,-22 -9,-48 -8,-31 -17,-46 -28,-46 -14,0 -51,8 -170,35 -21,6 -23,10 -17,47 8,52 14,60 34,54 10,-3 55,-13 102,-22 z m -6057,-92 c 5,-24 7,-45 5,-47 -2,-2 -39,-11 -83,-20 -44,-9 -90,-18 -101,-21 -18,-5 -23,1 -33,41 -7,26 -10,49 -8,51 8,8 172,43 192,41 15,-2 22,-13 28,-45 z m 6376,19 c 46,-11 85,-21 86,-23 1,-2 -4,-24 -11,-50 -9,-28 -19,-46 -27,-43 -6,2 -54,13 -104,25 -92,22 -93,23 -86,49 13,57 23,72 41,67 9,-3 55,-14 101,-25 z m -6697,-90 3,-45 -85,-17 c -119,-25 -116,-26 -129,27 -7,26 -11,47 -9,49 10,7 204,41 210,36 4,-3 8,-26 10,-50 z m -3955,17 c 51,-13 93,-27 93,-33 0,-33 -23,-85 -37,-85 -22,0 -176,41 -185,49 -11,9 13,91 26,91 6,0 52,-10 103,-22 z m 10951,1 c 48,-12 91,-25 95,-29 4,-4 2,-28 -5,-54 -9,-34 -16,-45 -27,-41 -8,3 -53,15 -100,27 -47,11 -88,22 -90,24 -7,6 22,94 31,94 5,0 48,-10 96,-21 z m -7318,-41 c 0,-7 3,-29 6,-49 l 6,-37 -88,-16 c -122,-22 -122,-22 -131,22 -4,20 -8,41 -8,46 0,6 38,17 85,27 107,21 130,22 130,7 z m -3226,-59 c 3,-2 -1,-26 -7,-52 -7,-30 -15,-46 -23,-43 -6,2 -51,12 -99,22 -48,9 -89,23 -92,30 -2,6 0,30 6,51 l 11,40 100,-22 c 55,-12 102,-24 104,-26 z m 10859,15 c 50,-14 95,-28 99,-30 8,-5 -20,-94 -30,-94 -7,0 -195,52 -200,55 -1,1 3,17 9,36 6,19 12,40 15,47 4,16 0,16 107,-14 z m -7953,-16 c 0,-7 3,-29 6,-49 l 6,-36 -78,-12 c -44,-7 -91,-15 -105,-18 -25,-5 -28,-2 -37,43 -6,27 -10,50 -8,51 4,4 162,31 189,32 15,1 27,-4 27,-11 z m -2665,-40 c 39,-6 73,-14 77,-17 4,-3 2,-27 -3,-52 l -10,-46 -101,18 c -55,10 -102,20 -105,22 -2,3 -1,26 3,52 6,46 7,47 38,41 17,-4 63,-12 101,-18 z m 2349,-45 c 3,-25 5,-48 3,-50 -8,-7 -202,-31 -208,-25 -6,7 -21,91 -17,93 10,3 177,27 194,28 18,1 22,-6 28,-46 z m -2054,2 c 114,-13 110,-10 103,-63 -3,-26 -7,-48 -8,-49 -3,-5 -205,23 -210,29 -3,2 -2,26 1,52 6,44 8,47 33,42 14,-3 51,-8 81,-11 z m 1730,-47 c 7,-55 9,-54 -122,-64 l -85,-7 -6,33 c -14,68 -15,66 86,77 126,14 121,15 127,-39 z m -1352,12 h 53 l -3,-52 -3,-52 -55,2 c -30,1 -79,5 -107,8 l -53,6 v 42 c 0,24 3,46 8,50 4,5 30,5 57,2 28,-3 74,-6 103,-6 z m 1026,-21 c 15,-76 13,-79 -58,-79 -35,0 -84,-3 -110,-6 l -46,-7 v 51 51 l 43,5 c 23,4 67,8 97,9 30,2 58,4 61,5 4,1 9,-12 13,-29 z m -700,5 46,-7 v -50 -50 l -107,7 c -60,4 -108,8 -109,9 0,1 1,23 4,50 l 4,47 h 58 c 31,0 78,-3 104,-6 z m 376,-43 c 0,-59 -4,-61 -132,-61 h -88 v 50 49 l 58,4 c 31,2 81,4 110,5 l 52,2 z m 1673,7 c 3,-13 26,-126 51,-253 117,-596 270,-1377 301,-1534 19,-96 33,-176 30,-179 -15,-15 -773,-137 -1070,-172 -256,-30 -708,-68 -636,-53 23,5 23,5 17,106 -7,102 -80,1500 -92,1759 l -7,137 34,5 c 19,3 66,8 104,11 244,21 728,94 1075,164 183,36 187,37 193,9 z M 1810,3936 c 319,-55 568,-81 923,-98 l 267,-12 V 2823 1820 h -82 c -400,0 -994,49 -1428,116 -271,42 -303,48 -308,63 -3,9 2,11 17,6 11,-3 21,-3 21,2 0,5 92,446 205,982 113,535 205,975 205,978 0,2 8,2 18,-1 9,-3 82,-17 162,-30 z m 8197,-1452 c -3,-3 -12,-4 -19,-1 -8,3 -5,6 6,6 11,1 17,-2 13,-5 z m -1399,-92 3,-52 h -110 -111 v 50 49 l 98,3 c 53,2 102,3 107,3 6,-1 11,-25 13,-53 z m 255,52 c 75,-7 77,-8 77,-33 -1,-70 -2,-71 -116,-71 h -104 v 55 55 h 33 c 19,0 68,-3 110,-6 z m 392,-19 c 6,-1 9,-23 7,-50 l -4,-48 -105,6 c -57,3 -107,7 -109,10 -3,3 -2,26 1,52 l 7,46 97,-6 c 53,-4 101,-8 106,-10 z m -973,-37 c 3,-24 2,-46 -1,-49 -3,-4 -52,-9 -108,-13 l -103,-6 v 27 c 0,16 -3,38 -6,50 -7,26 8,29 132,32 l 82,1 z m 1241,17 c 64,-6 67,-8 67,-33 0,-15 -3,-37 -6,-50 -7,-23 -9,-23 -83,-17 -132,11 -131,10 -131,59 0,53 5,58 50,52 19,-3 65,-8 103,-11 z m -1569,-11 c 3,-9 6,-30 6,-49 0,-32 0,-33 -57,-39 -32,-4 -79,-9 -104,-12 -42,-5 -47,-3 -53,18 -3,13 -6,35 -6,50 0,24 4,27 43,32 143,19 164,19 171,0 z m 1869,-24 c 43,-5 82,-10 87,-10 9,0 1,-81 -9,-92 -3,-4 -52,-2 -109,4 -111,12 -107,9 -96,80 6,32 10,37 28,33 11,-2 56,-9 99,-15 z m -2188,-50 7,-46 -103,-13 c -56,-7 -105,-9 -109,-4 -4,4 -10,27 -14,49 l -6,41 103,15 c 56,8 105,12 109,9 3,-3 9,-26 13,-51 z m 2543,-2 63,-10 -6,-42 c -4,-22 -10,-45 -14,-49 -4,-4 -54,0 -110,9 l -102,17 7,41 c 10,65 -5,62 162,34 z m -2866,-37 c 4,-25 6,-46 4,-48 -1,-2 -49,-11 -104,-21 l -102,-18 -10,35 c -18,66 -18,66 83,83 50,9 99,15 107,14 9,-1 17,-18 22,-45 z m 3161,-17 88,-17 -6,-41 c -4,-23 -11,-45 -15,-49 -4,-5 -45,-1 -91,8 -126,25 -121,22 -114,58 12,60 16,68 33,63 9,-3 57,-13 105,-22 z m -3489,-11 c 2,-10 7,-32 11,-49 l 6,-30 -102,-18 c -55,-10 -105,-14 -110,-9 -4,4 -11,26 -14,49 l -7,41 83,15 c 114,21 127,21 133,1 z m 3798,-54 c 51,-11 94,-21 96,-23 1,-2 -2,-25 -9,-51 -10,-40 -15,-46 -33,-41 -11,2 -58,12 -103,22 -46,10 -83,22 -83,28 0,25 22,86 31,86 5,0 51,-9 101,-21 z m -4113,-26 c 6,-21 11,-43 11,-49 0,-17 -202,-58 -211,-42 -9,14 -22,79 -17,84 5,4 167,41 190,43 12,1 20,-11 27,-36 z m 4444,-54 c 72,-18 87,-25 82,-38 -4,-9 -9,-28 -12,-44 -3,-15 -9,-29 -12,-32 -6,-3 -202,43 -208,49 -2,1 4,24 13,50 12,35 20,45 33,42 9,-3 56,-15 104,-27 z m -4769,13 c 3,-5 8,-27 12,-49 l 6,-40 -83,-17 c -46,-9 -93,-19 -104,-22 -17,-4 -22,2 -33,42 -7,26 -11,48 -9,50 4,5 168,42 189,43 9,1 19,-3 22,-7 z M 468,2048 c 50,-12 92,-27 92,-32 0,-22 -21,-86 -28,-86 -9,0 -196,43 -201,47 -8,6 22,93 33,93 6,0 53,-10 104,-22 z m 5565,-15 c 4,-21 6,-42 6,-48 -1,-8 -163,-52 -200,-55 -4,0 -10,16 -13,36 -4,19 -9,41 -12,49 -4,9 18,19 78,33 126,30 134,29 141,-15 z m 5440,-10 c 37,-8 40,-16 26,-63 -13,-43 -24,-47 -75,-31 -16,5 -55,17 -87,26 -58,16 -58,16 -52,48 15,67 17,68 92,46 38,-11 80,-22 96,-26 z m -5754,-68 c 6,-22 7,-42 3,-46 -5,-5 -155,-37 -196,-43 -5,0 -15,20 -21,47 -12,45 -12,47 9,52 147,34 182,41 188,36 3,-3 11,-24 17,-46 z m -4942,24 c 54,-12 99,-23 101,-24 2,-1 -2,-24 -9,-50 -13,-53 1,-51 -146,-19 -57,12 -73,20 -73,34 0,19 20,80 26,80 2,0 47,-10 101,-21 z m 10956,-34 c 97,-29 95,-26 67,-99 l -9,-24 -97,29 c -54,16 -99,29 -102,29 -2,0 -1,11 2,25 13,50 26,74 38,70 7,-2 53,-16 101,-30 z m -6335,-52 c 6,-26 10,-49 8,-50 -2,-3 -117,-27 -177,-37 l -37,-6 -7,46 c -3,25 -4,48 -1,51 4,5 162,39 193,42 6,0 16,-20 21,-46 z m -4294,21 c 50,-9 92,-18 94,-19 8,-6 -22,-95 -32,-95 -15,0 -190,32 -194,35 -2,2 0,24 3,49 8,53 3,52 129,30 z m 3974,-81 c 6,-26 9,-49 8,-50 -2,-2 -49,-12 -105,-22 -112,-20 -110,-22 -114,44 l -2,39 95,17 c 52,9 98,17 102,18 3,0 11,-20 16,-46 z m -3649,22 c 46,-8 85,-16 87,-17 3,-4 -12,-88 -18,-93 -4,-4 -199,25 -206,31 -2,1 0,23 3,48 8,54 7,53 134,31 z m 3335,-126 c -5,-9 -203,-34 -210,-26 -4,3 -9,26 -11,49 l -5,44 103,14 104,15 11,-45 c 6,-25 9,-48 8,-51 z m -3021,79 98,-12 -7,-46 c -4,-25 -8,-48 -10,-51 -1,-3 -51,1 -109,9 l -107,15 6,30 c 3,16 6,38 6,48 0,23 -1,22 123,7 z m 350,-44 c 64,-6 67,-7 67,-33 0,-14 -3,-37 -7,-50 -6,-22 -8,-23 -82,-16 -133,11 -138,13 -134,43 11,75 11,74 51,68 20,-3 67,-8 105,-12 z m 2342,-30 c 3,-25 5,-48 2,-50 -7,-7 -208,-31 -212,-25 -1,3 -5,26 -6,51 l -4,45 90,11 c 50,6 97,12 106,13 12,1 19,-11 24,-45 z m -2037,1 c 76,-6 92,-10 88,-22 -3,-8 -6,-31 -6,-50 v -35 l -107,7 c -60,4 -109,8 -111,10 -2,1 0,26 4,54 5,41 10,51 23,47 9,-3 58,-8 109,-11 z m 1714,-41 c 2,-25 1,-47 -2,-49 -4,-2 -51,-7 -107,-11 l -100,-7 -6,33 c -14,66 -12,69 51,73 31,2 80,4 108,5 l 52,2 z m -1384,19 82,-6 v -48 -49 h -49 c -26,0 -76,3 -110,6 l -61,7 v 48 c 0,56 -8,54 138,42 z m 1056,-15 c 3,-13 6,-35 6,-49 0,-24 -5,-27 -46,-33 -26,-3 -75,-6 -110,-6 h -64 v 50 49 l 68,4 c 37,2 83,4 103,5 30,2 38,-2 43,-20 z m -706,2 h 52 v -50 -50 h -104 c -58,0 -107,3 -109,8 -2,4 -2,29 1,56 l 4,49 52,-7 c 28,-3 75,-6 104,-6 z m 382,-45 v -55 h -110 -110 v 50 49 l 93,4 c 50,1 100,4 110,5 14,2 17,-6 17,-53 z"
             id="path95" />
        </g>
        <path
           d="m 387,1574 c -4,-4 -7,-16 -7,-26 0,-14 6,-19 23,-16 14,2 22,10 22,23 0,20 -25,32 -38,19 z"
           id="path97" />
      </g>
    </g>
    <path
       sodipodi:type="star"
       id="path115"
       sodipodi:sides="5"
       sodipodi:cx="56.126602"
       sodipodi:cy="59.868374"
       sodipodi:r1="21.403467"
       sodipodi:r2="10.701734"
       sodipodi:arg1="0.63650822"
       sodipodi:arg2="1.2648267"
       inkscape:flatsided="false"
       inkscape:rounded="0"
       inkscape:randomized="0"
       d="M 73.33876,72.590404 59.350156,70.073069 49.346082,80.169432 47.417493,66.08758 l -12.69364,-6.394492 12.79667,-6.185729 2.158973,-14.048376 9.837366,10.258862 14.027959,-2.287882 -6.716844,12.526053 z"
       inkscape:transform-center-x="1.9922663"
       inkscape:transform-center-y="-0.054166569"
       style="stroke-width:0.264583" />
    <path
       sodipodi:type="star"
       id="path119"
       sodipodi:sides="5"
       sodipodi:cx="111.41137"
       sodipodi:cy="43.11512"
       sodipodi:r1="21.403467"
       sodipodi:r2="10.701734"
       sodipodi:arg1="0.63650822"
       sodipodi:arg2="1.2648267"
       inkscape:flatsided="false"
       inkscape:rounded="0"
       inkscape:randomized="0"
       d="m 128.62353,55.83715 -13.98861,-2.517335 -10.00407,10.096363 -1.92859,-14.081852 -12.69364,-6.394492 12.79667,-6.185728 2.15897,-14.048377 9.83737,10.258862 14.02796,-2.287882 -6.71685,12.526053 z"
       inkscape:transform-center-x="1.9922663"
       inkscape:transform-center-y="-0.054166569"
       style="stroke-width:0.264583" />
    <path
       sodipodi:type="star"
       id="path121"
       sodipodi:sides="5"
       sodipodi:cx="165.74171"
       sodipodi:cy="62.747627"
       sodipodi:r1="21.403467"
       sodipodi:r2="10.701734"
       sodipodi:arg1="0.63650822"
       sodipodi:arg2="1.2648267"
       inkscape:flatsided="false"
       inkscape:rounded="0"
       inkscape:randomized="0"
       d="m 182.95387,75.469657 -13.9886,-2.517335 -10.00408,10.096363 -1.92858,-14.081852 -12.69364,-6.394492 12.79667,-6.185728 2.15897,-14.048376 9.83736,10.258861 14.02796,-2.287882 -6.71684,12.526054 z"
       inkscape:transform-center-x="1.9922663"
       inkscape:transform-center-y="-0.054166569"
       style="stroke-width:0.264583" />
    <path
       sodipodi:type="star"
       id="path123"
       sodipodi:sides="5"
       sodipodi:cx="222.07439"
       sodipodi:cy="57.792763"
       sodipodi:r1="21.403467"
       sodipodi:r2="10.701734"
       sodipodi:arg1="0.63650822"
       sodipodi:arg2="1.2648267"
       inkscape:flatsided="false"
       inkscape:rounded="0"
       inkscape:randomized="0"
       d="m 239.28654,70.514792 -13.9886,-2.517334 -10.00407,10.096363 -1.92859,-14.081852 -12.69364,-6.394492 12.79667,-6.185729 2.15897,-14.048376 9.83737,10.258862 14.02795,-2.287883 -6.71684,12.526054 z"
       inkscape:transform-center-x="1.9922663"
       inkscape:transform-center-y="-0.054166569"
       style="stroke-width:0.264583" />
    <path
       sodipodi:type="star"
       id="path125"
       sodipodi:sides="5"
       sodipodi:cx="275.20758"
       sodipodi:cy="40.580605"
       sodipodi:r1="21.403467"
       sodipodi:r2="10.701734"
       sodipodi:arg1="0.63650822"
       sodipodi:arg2="1.2648267"
       inkscape:flatsided="false"
       inkscape:rounded="0"
       inkscape:randomized="0"
       d="M 292.41974,53.302634 278.43113,50.7853 268.42706,60.881663 266.49847,46.799811 253.80483,40.405319 266.6015,34.21959 l 2.15897,-14.048376 9.83737,10.258861 14.02796,-2.287882 -6.71684,12.526054 z"
       inkscape:transform-center-x="1.9922663"
       inkscape:transform-center-y="-0.054166569"
       style="stroke-width:0.264583" />
  </g>
</svg>
